<svg width="41" height="36" viewBox="0 0 41 36" fill="none" xmlns="http://www.w3.org/2000/svg">
<path d="M0.5 1.6875C0.5 0.752344 1.25234 0 2.1875 0H5.38672C6.93359 0 8.30469 0.9 8.94453 2.25H37.843C39.6922 2.25 41.0422 4.00781 40.557 5.79375L37.6742 16.5023C37.0766 18.7102 35.0727 20.25 32.7875 20.25H12.5023L12.882 22.2539C13.0367 23.0484 13.7328 23.625 14.5414 23.625H34.8125C35.7477 23.625 36.5 24.3773 36.5 25.3125C36.5 26.2477 35.7477 27 34.8125 27H14.5414C12.1086 27 10.0203 25.2703 9.57031 22.8867L5.94219 3.83203C5.89297 3.56484 5.66094 3.375 5.38672 3.375H2.1875C1.25234 3.375 0.5 2.62266 0.5 1.6875ZM9.5 32.625C9.5 32.1818 9.5873 31.7429 9.75691 31.3334C9.92652 30.924 10.1751 30.5519 10.4885 30.2385C10.8019 29.9251 11.174 29.6765 11.5834 29.5069C11.9929 29.3373 12.4318 29.25 12.875 29.25C13.3182 29.25 13.7571 29.3373 14.1666 29.5069C14.576 29.6765 14.9481 29.9251 15.2615 30.2385C15.5749 30.5519 15.8235 30.924 15.9931 31.3334C16.1627 31.7429 16.25 32.1818 16.25 32.625C16.25 33.0682 16.1627 33.5071 15.9931 33.9166C15.8235 34.326 15.5749 34.6981 15.2615 35.0115C14.9481 35.3249 14.576 35.5735 14.1666 35.7431C13.7571 35.9127 13.3182 36 12.875 36C12.4318 36 11.9929 35.9127 11.5834 35.7431C11.174 35.5735 10.8019 35.3249 10.4885 35.0115C10.1751 34.6981 9.92652 34.326 9.75691 33.9166C9.5873 33.5071 9.5 33.0682 9.5 32.625ZM33.125 29.25C34.0201 29.25 34.8786 29.6056 35.5115 30.2385C36.1444 30.8714 36.5 31.7299 36.5 32.625C36.5 33.5201 36.1444 34.3786 35.5115 35.0115C34.8786 35.6444 34.0201 36 33.125 36C32.2299 36 31.3715 35.6444 30.7385 35.0115C30.1056 34.3786 29.75 33.5201 29.75 32.625C29.75 31.7299 30.1056 30.8714 30.7385 30.2385C31.3715 29.6056 32.2299 29.25 33.125 29.25ZM18.2188 11.25C18.2188 12.0234 18.8516 12.6562 19.625 12.6562H22.7188V15.75C22.7188 16.5234 23.3516 17.1562 24.125 17.1562C24.8984 17.1562 25.5313 16.5234 25.5313 15.75V12.6562H28.625C29.3984 12.6562 30.0313 12.0234 30.0313 11.25C30.0313 10.4766 29.3984 9.84375 28.625 9.84375H25.5313V6.75C25.5313 5.97656 24.8984 5.34375 24.125 5.34375C23.3516 5.34375 22.7188 5.97656 22.7188 6.75V9.84375H19.625C18.8516 9.84375 18.2188 10.4766 18.2188 11.25Z" fill="black"/>
</svg>
