<svg width="360" height="100" viewBox="0 0 360 100" fill="none" xmlns="http://www.w3.org/2000/svg">
<path d="M15 100L27.9904 25H2.00962L15 100Z" fill="#383838"/>
<path d="M45 100L57.9904 25H32.0096L45 100Z" fill="#383838"/>
<path d="M75 100L87.9904 25H62.0096L75 100Z" fill="#383838"/>
<path d="M105 100L117.99 25H92.0096L105 100Z" fill="#383838"/>
<path d="M135 100L147.99 25H122.01L135 100Z" fill="#383838"/>
<path d="M165 100L177.99 25H152.01L165 100Z" fill="#383838"/>
<path d="M195 100L207.99 25H182.01L195 100Z" fill="#383838"/>
<path d="M225 100L237.99 25H212.01L225 100Z" fill="#383838"/>
<path d="M255 100L267.99 25H242.01L255 100Z" fill="#383838"/>
<path d="M285 100L297.99 25H272.01L285 100Z" fill="#383838"/>
<path d="M315 100L327.99 25H302.01L315 100Z" fill="#383838"/>
<path d="M345 100L357.99 25H332.01L345 100Z" fill="#383838"/>
</svg>
