<svg width="47" height="47" viewBox="0 0 47 47" fill="none" xmlns="http://www.w3.org/2000/svg">
<path d="M46.8697 15.2963C47.1814 16.0951 46.9184 16.9857 46.2464 17.555L43.2369 20.135C42.487 20.7869 42.1266 21.7417 42.1753 22.6966C42.1851 22.9629 42.1948 23.2291 42.1948 23.5046C42.1948 23.78 42.1851 24.0463 42.1753 24.3126C42.1266 25.2766 42.4772 26.2315 43.2369 26.8742L46.2464 29.4542C46.9184 30.0234 47.1814 30.914 46.8697 31.7128C46.4412 32.8054 45.925 33.8521 45.3309 34.8621L44.8731 35.6058C44.2303 36.6157 43.5096 37.5706 42.7207 38.4704C42.1461 39.1315 41.1916 39.3518 40.3346 39.0947L36.468 37.9379C35.4941 37.6441 34.4422 37.8369 33.5754 38.3602C33.0982 38.6449 32.6112 38.9203 32.1048 39.159C31.199 39.5997 30.4978 40.371 30.2738 41.3075L29.407 45.0443C29.2122 45.8799 28.5304 46.5409 27.6344 46.6786C26.2903 46.8898 24.9073 47 23.4951 47C22.0829 47 20.6999 46.8898 19.3559 46.6786C18.4599 46.5409 17.7781 45.8799 17.5833 45.0443L16.7165 41.3075C16.5022 40.371 15.7913 39.5997 14.8855 39.159C14.379 38.9111 13.8921 38.6449 13.4148 38.3602C12.5578 37.8369 11.4962 37.6441 10.5222 37.9379L6.66543 39.1039C5.80836 39.361 4.8539 39.1315 4.27928 38.4796C3.49039 37.5798 2.76967 36.6249 2.12687 35.615L1.66912 34.8713C1.07501 33.8613 0.558824 32.8146 0.13029 31.722C-0.181371 30.9232 0.0815925 30.0326 0.753612 29.4634L3.76309 26.8834C4.51302 26.2315 4.87338 25.2766 4.82468 24.3217C4.81495 24.0555 4.80521 23.7892 4.80521 23.5138C4.80521 23.2383 4.81495 22.9721 4.82468 22.7058C4.87338 21.7417 4.52276 20.7869 3.76309 20.1442L0.753612 17.555C0.0815925 16.9857 -0.181371 16.0951 0.13029 15.2963C0.558824 14.2038 1.07501 13.1571 1.66912 12.1471L2.12687 11.4034C2.76967 10.3934 3.49039 9.43856 4.27928 8.53878C4.8539 7.87771 5.80836 7.65735 6.66543 7.91444L10.532 9.0713C11.5059 9.36511 12.5578 9.1723 13.4246 8.64895C13.9018 8.36433 14.3888 8.08888 14.8952 7.85017C15.801 7.40946 16.5022 6.63821 16.7262 5.7017L17.593 1.96484C17.7878 1.12932 18.4696 0.468256 19.3656 0.330533C20.7097 0.110178 22.0927 0 23.5049 0C24.9171 0 26.3001 0.110178 27.6441 0.321352C28.5401 0.459074 29.2219 1.12014 29.4167 1.95566L30.2835 5.69252C30.4978 6.62903 31.199 7.40027 32.1145 7.84098C32.621 8.08888 33.1079 8.35515 33.5852 8.63977C34.4422 9.16312 35.5038 9.34675 36.4778 9.06212L40.3443 7.90525C41.2014 7.64817 42.1558 7.87771 42.7305 8.5296C43.5194 9.42938 44.2401 10.3843 44.8829 11.3942L45.3406 12.1379C45.9347 13.1479 46.4509 14.1946 46.8795 15.2872L46.8697 15.2963ZM23.5049 30.8498C25.5713 30.8498 27.5531 30.0759 29.0143 28.6984C30.4755 27.3209 31.2964 25.4527 31.2964 23.5046C31.2964 21.5565 30.4755 19.6883 29.0143 18.3108C27.5531 16.9333 25.5713 16.1594 23.5049 16.1594C21.4384 16.1594 19.4566 16.9333 17.9954 18.3108C16.5342 19.6883 15.7133 21.5565 15.7133 23.5046C15.7133 25.4527 16.5342 27.3209 17.9954 28.6984C19.4566 30.0759 21.4384 30.8498 23.5049 30.8498Z" fill="#828282" fill-opacity="0.62"/>
</svg>
