<svg width="177" height="177" viewBox="0 0 177 177" fill="none" xmlns="http://www.w3.org/2000/svg">
<path d="M71.6297 11.2008C78.5042 12.2034 83.1663 17.9075 82.0205 23.9227L78.1487 44.25H115.722L120.265 20.2928C121.411 14.2776 127.93 10.1983 134.804 11.2008C141.679 12.2034 146.341 17.9075 145.195 23.9227L141.363 44.25H164.357C171.35 44.25 177 49.1936 177 55.3125C177 61.4315 171.35 66.375 164.357 66.375H137.135L128.72 110.625H151.714C158.707 110.625 164.357 115.569 164.357 121.687C164.357 127.806 158.707 132.75 151.714 132.75H124.493L119.949 156.707C118.803 162.722 112.284 166.802 105.41 165.799C98.5353 164.797 93.8732 159.093 95.019 153.077L98.8909 132.785H61.2784L56.7348 156.742C55.5891 162.757 49.0701 166.836 42.1955 165.834C35.321 164.831 30.6589 159.127 31.8047 153.112L35.6371 132.75H12.6429C5.64978 132.75 0 127.806 0 121.687C0 115.569 5.64978 110.625 12.6429 110.625H39.8645L48.2799 66.375H25.2857C18.2926 66.375 12.6429 61.4315 12.6429 55.3125C12.6429 49.1936 18.2926 44.25 25.2857 44.25H52.5074L57.0509 20.2928C58.1967 14.2776 64.7156 10.1983 71.5902 11.2008H71.6297ZM73.9212 66.375L65.5058 110.625H103.079L111.494 66.375H73.9212Z" fill="#212121"/>
</svg>
